# xmcd
#
# Track frame offsets: 
#        150
#        16885
#        38260
#        58452
#        79691
#        99470
#        120427
#        138820
#        164114
#        189590
#        203786
#        224781
#        241982
#        272423
#        287735
#        314837
#        329666
#        341162
#
# Disc length: 4718 seconds
#
# Revision: 0
# Processed by: cddbd v1.5.2PL0 Copyright (c) Steve Scherf et al.
# Submitted via: ExactAudioCopy v0.99pb5
#
DISCID=15126c12
DTITLE=Le blues autour du zinc  - Compilation 15eme edition
DYEAR=2010
DGENRE=Blues
TTITLE0=PushUp - I'm just a man
TTITLE1=Jake la brost - Hungry again
TTITLE2=Chicken diamond - Damm old sun
TTITLE3=Dwayne Dopsie - Take over
TTITLE4=Demi Evans - Breathing water
TTITLE5=LR Phoenix - Can you hear
TTITLE6=Marc minelli - Hipshaking Liquors
TTITLE7=Ian siegal - Stealing from the queen
TTITLE8=Sharre williams - Power 538
TTITLE9=Judge Bone - Down the cold cold ground
TTITLE10=Eric sradinas - Ride
TTITLE11=Bernadette seacrest - Blue rendez vous
TTITLE12=Nomo - All the stars
TTITLE13=Triggerfinger - First taste
TTITLE14=Popa Chubby - Catfish blues
TTITLE15=MAtt schofield - Cant put you down
TTITLE16=Dave arcari - Got me electric
TTITLE17=Chris casello - Hillbily train
EXTD=
EXTT0=
EXTT1=
EXTT2=
EXTT3=
EXTT4=
EXTT5=
EXTT6=
EXTT7=
EXTT8=
EXTT9=
EXTT10=
EXTT11=
EXTT12=
EXTT13=
EXTT14=
EXTT15=
EXTT16=
EXTT17=
PLAYORDER=
